<?xml version="1.0" encoding="iso-8859-1"?>
<!-- Generator: Adobe Illustrator 19.0.0, SVG Export Plug-In . SVG Version: 6.00 Build 0)  -->
<svg xmlns="http://www.w3.org/2000/svg" xmlns:xlink="http://www.w3.org/1999/xlink" version="1.1" id="Layer_1" x="0px" y="0px" viewBox="0 0 372 372" style="enable-background:new 0 0 372 372;" xml:space="preserve" width="512" height="512">
<g>
	<path style="fill:#F8D56D;" d="M339,67.28C339,42.272,318.727,22,293.72,22H78.28C53.273,22,33,42.272,33,67.28v259.44   C33,351.728,53.273,372,78.28,372H293.72c25.008,0,45.28-20.272,45.28-45.28V67.28z"/>
	<path style="fill:#FFE48E;" d="M186,22H78.28C53.273,22,33,42.272,33,67.28v259.44C33,351.728,53.273,372,78.28,372H186V22z"/>
	<g>
		<rect x="86.008" y="22" style="fill:#C6C7C6;" width="199.985" height="309.739"/>
	</g>
	<g>
		<rect x="86.008" y="22" style="fill:#DCDCDC;" width="99.992" height="309.739"/>
	</g>
	<path style="fill:#E4C565;" d="M216,9h-4.256c-2.316-5.296-7.594-9-13.744-9h-25c-6.149,0-11.428,3.704-13.744,9H155   c-8.284,0-15,6.716-15,15s6.716,15,15,15h61c8.284,0,15-6.716,15-15S224.284,9,216,9z"/>
	<path style="fill:#F8D56D;" d="M186.003,0H173c-6.149,0-11.428,3.704-13.744,9H155c-8.284,0-15,6.716-15,15s6.716,15,15,15h31.003   L186.003,0z"/>
	<g>
		<path style="fill:#B3B3B3;" d="M145,126h-7c-8.284,0-15-6.716-15-15s6.716-15,15-15h7c8.284,0,15,6.716,15,15S153.284,126,145,126    z"/>
		<path style="fill:#A8A8A8;" d="M234,126h-51c-8.284,0-15-6.716-15-15s6.716-15,15-15h51c8.284,0,15,6.716,15,15    S242.284,126,234,126z"/>
		<path style="fill:#B3B3B3;" d="M186,126h-3c-8.284,0-15-6.716-15-15s6.716-15,15-15h3L186,126z"/>
	</g>
	<g>
		<path style="fill:#B3B3B3;" d="M145,183h-7c-8.284,0-15-6.716-15-15s6.716-15,15-15h7c8.284,0,15,6.716,15,15S153.284,183,145,183    z"/>
		<path style="fill:#A8A8A8;" d="M234,183h-51c-8.284,0-15-6.716-15-15s6.716-15,15-15h51c8.284,0,15,6.716,15,15    S242.284,183,234,183z"/>
		<path style="fill:#B3B3B3;" d="M186,183h-3c-8.284,0-15-6.716-15-15s6.716-15,15-15h3L186,183z"/>
	</g>
	<g>
		<path style="fill:#B3B3B3;" d="M145,240h-7c-8.284,0-15-6.716-15-15s6.716-15,15-15h7c8.284,0,15,6.716,15,15S153.284,240,145,240    z"/>
		<path style="fill:#A8A8A8;" d="M234,240h-51c-8.284,0-15-6.716-15-15s6.716-15,15-15h51c8.284,0,15,6.716,15,15    S242.284,240,234,240z"/>
		<path style="fill:#B3B3B3;" d="M186,240h-3c-8.284,0-15-6.716-15-15s6.716-15,15-15h3L186,240z"/>
	</g>
</g>















</svg>
