<?xml version="1.0" standalone="no"?>
<!DOCTYPE svg PUBLIC "-//W3C//DTD SVG 20010904//EN"
 "http://www.w3.org/TR/2001/REC-SVG-20010904/DTD/svg10.dtd">
<svg version="1.0" xmlns="http://www.w3.org/2000/svg"
 width="1570.000000pt" height="1570.000000pt" viewBox="0 0 1570.000000 1570.000000"
 preserveAspectRatio="xMidYMid meet">
<metadata>
Created by potrace 1.15, written by Peter Selinger 2001-2017
</metadata>
<g transform="translate(0.000000,1570.000000) scale(0.100000,-0.100000)"
fill="#000000" stroke="none">
<path d="M7478 15694 c-3 -3 -71 -10 -150 -15 -1512 -100 -2956 -633 -4163
-1536 -491 -367 -943 -794 -1336 -1264 -1041 -1242 -1676 -2799 -1794 -4399
-9 -118 -21 -264 -26 -325 -19 -196 -3 -662 36 -1070 215 -2195 1335 -4180
3110 -5513 1209 -908 2688 -1454 4175 -1542 96 -5 253 -15 347 -21 126 -8 220
-8 345 0 95 6 252 16 348 21 540 32 1102 130 1647 286 1903 543 3537 1802
4565 3514 620 1032 995 2208 1083 3393 8 111 19 249 25 307 13 136 13 517 0
640 -5 52 -17 192 -25 310 -114 1567 -731 3104 -1741 4335 -238 291 -611 680
-869 906 -961 844 -2034 1415 -3250 1729 -435 113 -884 185 -1435 232 -151 12
-882 23 -892 12z m548 -5029 c63 -19 152 -81 188 -133 89 -130 92 -321 6 -440
l-28 -40 61 -6 c860 -91 1659 -538 2191 -1225 338 -436 578 -1018 636 -1541
18 -160 11 -146 78 -152 100 -10 171 -59 211 -148 18 -39 21 -65 21 -200 0
-179 -9 -210 -78 -272 -82 -74 225 -68 -3452 -66 l-3305 3 -40 21 c-58 32 -93
68 -118 122 -19 41 -22 64 -22 192 0 165 9 202 63 262 52 58 103 81 194 86 88
5 83 0 93 107 8 95 31 228 61 357 286 1250 1321 2222 2584 2427 69 11 152 23
186 27 l61 6 -33 49 c-42 62 -58 136 -52 235 6 97 30 156 94 224 83 89 151
118 275 119 41 1 98 -6 125 -14z"/>
</g>
</svg>
